#!OML:ASF I:\golf\golf\golf 2\Subject 1\2002-09-07\Subject1.ASF
:FULLY-SPECIFIED
:DEGREES
179
root 0.481043 17.7459 -6.74235 13.8268 -5.44155 -3.86477
lowerback 8.00309 2.17275 -4.99269
upperback 6.8485 2.55198 3.81926
thorax 2.27099 1.00265 6.65009
lowerneck -15.3541 2.13548 1.81572
upperneck 36.41 5.95474 -8.80336
head 15.8549 1.54467 -3.05709
rclavicle 1.72943e-014 2.06736e-014
rhumerus -12.1164 18.0038 -82.324
rradius 33.8735
rwrist -7.56674
rhand -26.1218 12.2922
rfingers 7.12502
rthumb 0.428126 -17.6871
lclavicle 1.72943e-014 2.06736e-014
lhumerus -27.327 -51.9486 96.5751
lradius 49.0569
lwrist -6.66223
lhand -22.1323 11.2194
lfingers 7.12502
lthumb 4.28102 41.1561
rfemur -19.3553 -3.20795 25.2576
rtibia 36.9837
rfoot -20.3673 -5.12349
rtoes -7.72028
lfemur -37.4353 1.86457 -7.76032
ltibia 24.2398
lfoot -0.860035 -3.25315
ltoes -8.95943
180
root 0.515834 17.7317 -6.71433 13.8632 -5.57893 -3.82037
lowerback 8.47581 2.18785 -5.22412
upperback 7.17082 2.53694 3.8109
thorax 2.34796 0.973531 6.7688
lowerneck -15.7147 2.19888 1.60953
upperneck 36.0686 6.08833 -8.80563
head 15.7774 1.56752 -2.98022
rclavicle -1.86858e-014 -1.47101e-014
rhumerus -11.1365 18.5168 -82.1139
rradius 34.0099
rwrist -7.40776
rhand -26.686 12.6401
rfingers 7.12502
rthumb -0.116861 -17.3396
lclavicle -1.86858e-014 -1.47101e-014
lhumerus -26.4643 -52.4153 95.8826
lradius 49.2416
lwrist -6.55536
lhand -22.5757 10.9695
lfingers 7.12502
lthumb 3.85288 40.9145
rfemur -20.0875 -3.56824 25.0696
rtibia 38.4403
rfoot -20.3064 -4.6769
rtoes -7.10669
lfemur -37.9315 2.05242 -7.9804
ltibia 25.0227
lfoot -0.974582 -3.00493
ltoes -10.1603
181
root 0.551345 17.7126 -6.68669 13.9238 -5.68894 -3.81219
lowerback 8.89777 2.27385 -5.41264
upperback 7.37371 2.61992 3.7598
thorax 2.3148 1.00347 6.80749
lowerneck -15.7241 2.17787 1.56713
upperneck 35.74 6.0306 -8.78876
head 15.6084 1.54613 -2.95952
rclavicle -1.96797e-014 1.59028e-015
rhumerus -10.4786 18.6128 -82.0408
rradius 34.151
rwrist -7.16361
rhand -27.0334 12.9503
rfingers 7.12502
rthumb -0.452365 -17.029
lclavicle -1.96797e-014 1.59028e-015
lhumerus -26.0136 -53.2721 95.465
lradius 49.5324
lwrist -6.21693
lhand -23.0569 11.0027
lfingers 7.12502
lthumb 3.38811 40.9555
rfemur -20.9304 -4.01105 24.9213
rtibia 40.0236
rfoot -20.187 -4.25455
rtoes -7.89545
lfemur -38.4328 2.4105 -8.24182
ltibia 25.7773
lfoot -0.806683 -3.23385
ltoes -12.2073
182
root 0.589228 17.6925 -6.65838 14.0275 -5.86274 -3.79584
lowerback 9.28888 2.39428 -5.61625
upperback 7.55887 2.7471 3.71157
thorax 2.27269 1.05556 6.85386
lowerneck -15.7218 2.17184 1.60788
upperneck 35.3813 6.01954 -8.91446
head 15.4382 1.53814 -3.0061
rclavicle -1.25234e-014 -2.78299e-015
rhumerus -9.87905 18.7235 -81.9493
rradius 34.3979
rwrist -6.99745
rhand -27.3227 13.1088
rfingers 7.12502
rthumb -0.731758 -16.8697
lclavicle -1.25234e-014 -2.78299e-015
lhumerus -25.5627 -54.0851 95.074
lradius 49.8049
lwrist -5.97592
lhand -23.5955 11.0677
lfingers 7.12502
lthumb 2.86804 41.0281
rfemur -21.924 -4.51872 24.7472
rtibia 41.7479
rfoot -19.7932 -3.78429
rtoes -9.30278
lfemur -38.9339 2.78796 -8.52217
ltibia 26.5261
lfoot -0.805329 -3.59925
ltoes -14.6827
183
root 0.630646 17.6727 -6.63109 14.1557 -6.06972 -3.90642
lowerback 9.84506 2.53202 -5.53623
upperback 7.66295 2.90633 3.59433
thorax 2.06097 1.14481 6.65055
lowerneck -15.7633 2.17157 1.69895
upperneck 35.147 5.97776 -8.94313
head 15.334 1.53298 -3.031
rclavicle -6.95746e-015 8.34896e-015
rhumerus -9.42745 18.6559 -82.0062
rradius 34.7412
rwrist -6.86743
rhand -27.5604 13.1929
rfingers 7.12502
rthumb -0.961386 -16.7846
lclavicle -6.95746e-015 8.34896e-015
lhumerus -25.243 -54.883 94.629
lradius 50.0336
lwrist -6.18317
lhand -24.5357 10.8548
lfingers 7.12502
lthumb 1.95995 40.8255
rfemur -23.0103 -4.94856 24.6932
rtibia 43.6249
rfoot -19.2626 -3.0389
rtoes -8.60487
lfemur -39.4281 3.0784 -8.6034
ltibia 27.2719
lfoot -0.896317 -3.76183
ltoes -15.6166
184
root 0.674339 17.6521 -6.6041 14.2549 -6.30651 -4.16935
lowerback 10.1908 2.66596 -5.39037
upperback 7.9703 3.07416 3.59587
thorax 2.17817 1.21997 6.54847
lowerneck -16.0278 2.11727 1.4119
upperneck 34.9476 5.90373 -8.74884
head 15.2759 1.48669 -2.89926
rclavicle 3.37934e-015 1.59028e-014
rhumerus -8.63248 18.631 -81.8312
rradius 35.0168
rwrist -6.66778
rhand -27.8324 13.3566
rfingers 7.12502
rthumb -1.22407 -16.6196
lclavicle 3.37934e-015 1.59028e-014
lhumerus -24.3488 -55.7055 93.8266
lradius 50.2569
lwrist -6.40928
lhand -25.5874 10.6179
lfingers 7.12502
lthumb 0.944235 40.5955
rfemur -24.1262 -5.27033 24.7764
rtibia 45.669
rfoot -18.6338 -2.25172
rtoes -8.21146
lfemur -39.8156 3.35329 -8.47903
ltibia 28.0035
lfoot -0.975132 -3.80496
ltoes -14.0307
